<?xml version="1.0" encoding="UTF-8" standalone="no"?>
<!DOCTYPE svg PUBLIC "-//W3C//DTD SVG 1.1//EN"
 "http://www.w3.org/Graphics/SVG/1.1/DTD/svg11.dtd">
<!-- Generated by graphviz version 9.0.0 (20230911.1827)
 -->
<!-- Title: G Pages: 1 -->
<svg width="1136pt" height="418pt"
 viewBox="0.00 0.00 1136.00 418.00" xmlns="http://www.w3.org/2000/svg" xmlns:xlink="http://www.w3.org/1999/xlink">
<g id="graph0" class="graph" transform="scale(1 1) rotate(0) translate(4 414)">
<title>G</title>
<polygon fill="white" stroke="none" points="-4,4 -4,-414 1132,-414 1132,4 -4,4"/>
<g id="clust1" class="cluster">
<title>cluster_module.network</title>
<polygon fill="none" stroke="black" points="8,-8 8,-157 1120,-157 1120,-8 8,-8"/>
<text text-anchor="middle" x="564" y="-139.7" font-family="sans-serif" font-size="14.00">module.network</text>
</g>
<g id="clust2" class="cluster">
<title>cluster_module.server</title>
<polygon fill="none" stroke="black" points="483.25,-165 483.25,-402 1065.62,-402 1065.62,-165 483.25,-165"/>
<text text-anchor="middle" x="774.44" y="-384.7" font-family="sans-serif" font-size="14.00">module.server</text>
</g>
<!-- module.network.aws_internet_gateway.wordpress_igw -->
<g id="node1" class="node">
<title>module.network.aws_internet_gateway.wordpress_igw</title>
<polygon fill="none" stroke="black" points="455.25,-52 212,-52 212,-16 455.25,-16 455.25,-52"/>
<text text-anchor="middle" x="333.62" y="-28.2" font-family="sans-serif" font-size="14.00">aws_internet_gateway.wordpress_igw</text>
</g>
<!-- module.network.aws_vpc.wordpress&#45;vpc -->
<g id="node6" class="node">
<title>module.network.aws_vpc.wordpress&#45;vpc</title>
<polygon fill="none" stroke="black" points="176,-126 16,-126 16,-90 176,-90 176,-126"/>
<text text-anchor="middle" x="96" y="-102.2" font-family="sans-serif" font-size="14.00">aws_vpc.wordpress&#45;vpc</text>
</g>
<!-- module.network.aws_internet_gateway.wordpress_igw&#45;&gt;module.network.aws_vpc.wordpress&#45;vpc -->
<g id="edge1" class="edge">
<title>module.network.aws_internet_gateway.wordpress_igw&#45;&gt;module.network.aws_vpc.wordpress&#45;vpc</title>
<path fill="none" stroke="black" d="M258.64,-52.49C243.16,-56.68 226.98,-61.29 212,-66 193.36,-71.86 173.27,-78.93 155.19,-85.58"/>
<polygon fill="black" stroke="black" points="154.08,-82.26 145.93,-89.02 156.52,-88.82 154.08,-82.26"/>
</g>
<!-- module.network.aws_route_table.wordpress_rt -->
<g id="node2" class="node">
<title>module.network.aws_route_table.wordpress_rt</title>
<polygon fill="none" stroke="black" points="700,-52 503.25,-52 503.25,-16 700,-16 700,-52"/>
<text text-anchor="middle" x="601.62" y="-28.2" font-family="sans-serif" font-size="14.00">aws_route_table.wordpress_rt</text>
</g>
<!-- module.network.aws_route_table.wordpress_rt&#45;&gt;module.network.aws_internet_gateway.wordpress_igw -->
<g id="edge2" class="edge">
<title>module.network.aws_route_table.wordpress_rt&#45;&gt;module.network.aws_internet_gateway.wordpress_igw</title>
<path fill="none" stroke="black" d="M503.09,-34C491.28,-34 479.07,-34 466.87,-34"/>
<polygon fill="black" stroke="black" points="467.2,-30.5 457.2,-34 467.2,-37.5 467.2,-30.5"/>
</g>
<!-- module.network.aws_route_table_association.wordpress_rt_as_pubsubnet -->
<g id="node3" class="node">
<title>module.network.aws_route_table_association.wordpress_rt_as_pubsubnet</title>
<polygon fill="none" stroke="black" points="1112,-79 748,-79 748,-43 1112,-43 1112,-79"/>
<text text-anchor="middle" x="930" y="-55.2" font-family="sans-serif" font-size="14.00">aws_route_table_association.wordpress_rt_as_pubsubnet</text>
</g>
<!-- module.network.aws_route_table_association.wordpress_rt_as_pubsubnet&#45;&gt;module.network.aws_route_table.wordpress_rt -->
<g id="edge3" class="edge">
<title>module.network.aws_route_table_association.wordpress_rt_as_pubsubnet&#45;&gt;module.network.aws_route_table.wordpress_rt</title>
<path fill="none" stroke="black" d="M747.68,-46C735.34,-44.98 723.13,-43.97 711.36,-43"/>
<polygon fill="black" stroke="black" points="711.97,-39.53 701.72,-42.2 711.4,-46.51 711.97,-39.53"/>
</g>
<!-- module.network.aws_subnet.pub&#45;subnet -->
<g id="node5" class="node">
<title>module.network.aws_subnet.pub&#45;subnet</title>
<polygon fill="none" stroke="black" points="681.25,-106 522,-106 522,-70 681.25,-70 681.25,-106"/>
<text text-anchor="middle" x="601.62" y="-82.2" font-family="sans-serif" font-size="14.00">aws_subnet.pub&#45;subnet</text>
</g>
<!-- module.network.aws_route_table_association.wordpress_rt_as_pubsubnet&#45;&gt;module.network.aws_subnet.pub&#45;subnet -->
<g id="edge4" class="edge">
<title>module.network.aws_route_table_association.wordpress_rt_as_pubsubnet&#45;&gt;module.network.aws_subnet.pub&#45;subnet</title>
<path fill="none" stroke="black" d="M747.68,-76C728.66,-77.57 709.98,-79.12 692.68,-80.55"/>
<polygon fill="black" stroke="black" points="692.7,-77.04 683.03,-81.35 693.28,-84.01 692.7,-77.04"/>
</g>
<!-- module.network.aws_subnet.priv&#45;subnet -->
<g id="node4" class="node">
<title>module.network.aws_subnet.priv&#45;subnet</title>
<polygon fill="none" stroke="black" points="412.88,-126 254.38,-126 254.38,-90 412.88,-90 412.88,-126"/>
<text text-anchor="middle" x="333.62" y="-102.2" font-family="sans-serif" font-size="14.00">aws_subnet.priv&#45;subnet</text>
</g>
<!-- module.network.aws_subnet.priv&#45;subnet&#45;&gt;module.network.aws_vpc.wordpress&#45;vpc -->
<g id="edge5" class="edge">
<title>module.network.aws_subnet.priv&#45;subnet&#45;&gt;module.network.aws_vpc.wordpress&#45;vpc</title>
<path fill="none" stroke="black" d="M254.17,-108C232.85,-108 209.59,-108 187.65,-108"/>
<polygon fill="black" stroke="black" points="187.84,-104.5 177.84,-108 187.84,-111.5 187.84,-104.5"/>
</g>
<!-- module.network.aws_subnet.pub&#45;subnet&#45;&gt;module.network.aws_vpc.wordpress&#45;vpc -->
<g id="edge6" class="edge">
<title>module.network.aws_subnet.pub&#45;subnet&#45;&gt;module.network.aws_vpc.wordpress&#45;vpc</title>
<path fill="none" stroke="black" d="M521.8,-80.46C443.07,-74.36 318.75,-68.64 212,-81 199.99,-82.39 187.41,-84.57 175.17,-87.11"/>
<polygon fill="black" stroke="black" points="174.55,-83.66 165.52,-89.2 176.03,-90.5 174.55,-83.66"/>
</g>
<!-- module.server.aws_db_instance.wordpress_db -->
<g id="node7" class="node">
<title>module.server.aws_db_instance.wordpress_db</title>
<polygon fill="none" stroke="black" points="1034.38,-276 825.62,-276 825.62,-240 1034.38,-240 1034.38,-276"/>
<text text-anchor="middle" x="930" y="-252.2" font-family="sans-serif" font-size="14.00">aws_db_instance.wordpress_db</text>
</g>
<!-- module.server.aws_db_subnet_group.db_subnet -->
<g id="node8" class="node">
<title>module.server.aws_db_subnet_group.db_subnet</title>
<polygon fill="none" stroke="black" points="711.25,-263 492,-263 492,-227 711.25,-227 711.25,-263"/>
<text text-anchor="middle" x="601.62" y="-239.2" font-family="sans-serif" font-size="14.00">aws_db_subnet_group.db_subnet</text>
</g>
<!-- module.server.aws_db_instance.wordpress_db&#45;&gt;module.server.aws_db_subnet_group.db_subnet -->
<g id="edge7" class="edge">
<title>module.server.aws_db_instance.wordpress_db&#45;&gt;module.server.aws_db_subnet_group.db_subnet</title>
<path fill="none" stroke="black" d="M825.28,-253.87C792.75,-252.57 756.56,-251.13 722.98,-249.79"/>
<polygon fill="black" stroke="black" points="723.35,-246.31 713.21,-249.4 723.07,-253.3 723.35,-246.31"/>
</g>
<!-- module.server.aws_security_group.rds&#45;sg -->
<g id="node11" class="node">
<title>module.server.aws_security_group.rds&#45;sg</title>
<polygon fill="none" stroke="black" points="690.25,-371 513,-371 513,-335 690.25,-335 690.25,-371"/>
<text text-anchor="middle" x="601.62" y="-347.2" font-family="sans-serif" font-size="14.00">aws_security_group.rds&#45;sg</text>
</g>
<!-- module.server.aws_db_instance.wordpress_db&#45;&gt;module.server.aws_security_group.rds&#45;sg -->
<g id="edge8" class="edge">
<title>module.server.aws_db_instance.wordpress_db&#45;&gt;module.server.aws_security_group.rds&#45;sg</title>
<path fill="none" stroke="black" d="M862.4,-276.47C828.02,-286.36 785.53,-299.13 748,-312 731.76,-317.57 728.37,-320.82 712,-326 705.91,-327.93 699.59,-329.8 693.2,-331.61"/>
<polygon fill="black" stroke="black" points="692.58,-328.15 683.87,-334.18 694.44,-334.9 692.58,-328.15"/>
</g>
<!-- module.server.aws_db_subnet_group.db_subnet&#45;&gt;module.network.aws_subnet.priv&#45;subnet -->
<g id="edge9" class="edge">
<title>module.server.aws_db_subnet_group.db_subnet&#45;&gt;module.network.aws_subnet.priv&#45;subnet</title>
<path fill="none" stroke="black" d="M505.02,-226.53C497.52,-224.02 490.18,-221.19 483.25,-218 436.68,-196.55 390.37,-159.05 362.12,-133.87"/>
<polygon fill="black" stroke="black" points="364.49,-131.3 354.73,-127.19 359.8,-136.49 364.49,-131.3"/>
</g>
<!-- module.server.aws_instance.wordpress_ec2 -->
<g id="node9" class="node">
<title>module.server.aws_instance.wordpress_ec2</title>
<polygon fill="none" stroke="black" points="1026.5,-209 833.5,-209 833.5,-173 1026.5,-173 1026.5,-209"/>
<text text-anchor="middle" x="930" y="-185.2" font-family="sans-serif" font-size="14.00">aws_instance.wordpress_ec2</text>
</g>
<!-- module.server.aws_instance.wordpress_ec2&#45;&gt;module.network.aws_subnet.pub&#45;subnet -->
<g id="edge10" class="edge">
<title>module.server.aws_instance.wordpress_ec2&#45;&gt;module.network.aws_subnet.pub&#45;subnet</title>
<path fill="none" stroke="black" d="M833.3,-180.64C805.38,-176.15 775.11,-169.83 748,-161 710.69,-148.85 671.06,-128.39 642.61,-112.21"/>
<polygon fill="black" stroke="black" points="644.39,-109.19 633.98,-107.23 640.89,-115.26 644.39,-109.19"/>
</g>
<!-- module.server.aws_key_pair.my&#45;key -->
<g id="node10" class="node">
<title>module.server.aws_key_pair.my&#45;key</title>
<polygon fill="none" stroke="black" points="674.88,-209 528.38,-209 528.38,-173 674.88,-173 674.88,-209"/>
<text text-anchor="middle" x="601.62" y="-185.2" font-family="sans-serif" font-size="14.00">aws_key_pair.my&#45;key</text>
</g>
<!-- module.server.aws_instance.wordpress_ec2&#45;&gt;module.server.aws_key_pair.my&#45;key -->
<g id="edge11" class="edge">
<title>module.server.aws_instance.wordpress_ec2&#45;&gt;module.server.aws_key_pair.my&#45;key</title>
<path fill="none" stroke="black" d="M833.28,-191C786.82,-191 731.51,-191 686.7,-191"/>
<polygon fill="black" stroke="black" points="686.76,-187.5 676.76,-191 686.76,-194.5 686.76,-187.5"/>
</g>
<!-- module.server.aws_security_group.wordpress&#45;sg -->
<g id="node12" class="node">
<title>module.server.aws_security_group.wordpress&#45;sg</title>
<polygon fill="none" stroke="black" points="712,-317 491.25,-317 491.25,-281 712,-281 712,-317"/>
<text text-anchor="middle" x="601.62" y="-293.2" font-family="sans-serif" font-size="14.00">aws_security_group.wordpress&#45;sg</text>
</g>
<!-- module.server.aws_instance.wordpress_ec2&#45;&gt;module.server.aws_security_group.wordpress&#45;sg -->
<g id="edge12" class="edge">
<title>module.server.aws_instance.wordpress_ec2&#45;&gt;module.server.aws_security_group.wordpress&#45;sg</title>
<path fill="none" stroke="black" d="M833.17,-200.57C804.36,-206.43 773.63,-215.85 748,-231 727.12,-243.34 732.72,-259.41 712,-272 709.94,-273.25 707.83,-274.44 705.68,-275.58"/>
<polygon fill="black" stroke="black" points="704.19,-272.41 696.66,-279.86 707.19,-278.73 704.19,-272.41"/>
</g>
<!-- module.server.aws_security_group.rds&#45;sg&#45;&gt;module.network.aws_vpc.wordpress&#45;vpc -->
<g id="edge13" class="edge">
<title>module.server.aws_security_group.rds&#45;sg&#45;&gt;module.network.aws_vpc.wordpress&#45;vpc</title>
<path fill="none" stroke="black" d="M512.76,-337.85C430.07,-320.59 305.33,-286.58 212,-226 173.79,-201.2 138.63,-161.6 117.5,-135.21"/>
<polygon fill="black" stroke="black" points="120.49,-133.36 111.56,-127.66 114.99,-137.68 120.49,-133.36"/>
</g>
<!-- module.server.aws_security_group.wordpress&#45;sg&#45;&gt;module.network.aws_vpc.wordpress&#45;vpc -->
<g id="edge14" class="edge">
<title>module.server.aws_security_group.wordpress&#45;sg&#45;&gt;module.network.aws_vpc.wordpress&#45;vpc</title>
<path fill="none" stroke="black" d="M512.67,-280.54C502.68,-277.92 492.7,-275.07 483.25,-272 357.6,-231.22 216.16,-165.93 144.34,-131.31"/>
<polygon fill="black" stroke="black" points="146.15,-128.3 135.62,-127.09 143.1,-134.6 146.15,-128.3"/>
</g>
<!-- module.server.aws_security_group_rule.rds&#45;ingress&#45;sg -->
<g id="node13" class="node">
<title>module.server.aws_security_group_rule.rds&#45;ingress&#45;sg</title>
<polygon fill="none" stroke="black" points="1057.62,-357 802.38,-357 802.38,-321 1057.62,-321 1057.62,-357"/>
<text text-anchor="middle" x="930" y="-333.2" font-family="sans-serif" font-size="14.00">aws_security_group_rule.rds&#45;ingress&#45;sg</text>
</g>
<!-- module.server.aws_security_group_rule.rds&#45;ingress&#45;sg&#45;&gt;module.server.aws_security_group.rds&#45;sg -->
<g id="edge15" class="edge">
<title>module.server.aws_security_group_rule.rds&#45;ingress&#45;sg&#45;&gt;module.server.aws_security_group.rds&#45;sg</title>
<path fill="none" stroke="black" d="M801.88,-344.45C768.72,-345.88 733.47,-347.39 701.99,-348.74"/>
<polygon fill="black" stroke="black" points="701.92,-345.24 692.08,-349.16 702.22,-352.23 701.92,-345.24"/>
</g>
<!-- module.server.aws_security_group_rule.rds&#45;ingress&#45;sg&#45;&gt;module.server.aws_security_group.wordpress&#45;sg -->
<g id="edge16" class="edge">
<title>module.server.aws_security_group_rule.rds&#45;ingress&#45;sg&#45;&gt;module.server.aws_security_group.wordpress&#45;sg</title>
<path fill="none" stroke="black" d="M801.88,-323.42C776.15,-320.27 749.17,-316.96 723.66,-313.83"/>
<polygon fill="black" stroke="black" points="724.3,-310.39 713.94,-312.64 723.44,-317.33 724.3,-310.39"/>
</g>
</g>
</svg>
